<svg width="60" height="50" viewBox="0 0 60 50" fill="none" xmlns="http://www.w3.org/2000/svg">
<rect width="60" height="50" rx="10" fill="#0F1719"/>
<path d="M17.888 36.448C16.16 36.448 14.6347 36.1387 13.312 35.52C11.9893 34.9013 10.9547 34.016 10.208 32.864C9.46133 31.712 9.088 30.3253 9.088 28.704V27.808H13.248V28.704C13.248 30.048 13.664 31.0613 14.496 31.744C15.328 32.4053 16.4587 32.736 17.888 32.736C19.3387 32.736 20.416 32.448 21.12 31.872C21.8453 31.296 22.208 30.56 22.208 29.664C22.208 29.0453 22.0267 28.544 21.664 28.16C21.3227 27.776 20.8107 27.4667 20.128 27.232C19.4667 26.976 18.656 26.7413 17.696 26.528L16.96 26.368C15.424 26.0267 14.1013 25.6 12.992 25.088C11.904 24.5547 11.0613 23.8613 10.464 23.008C9.888 22.1547 9.6 21.0453 9.6 19.68C9.6 18.3147 9.92 17.152 10.56 16.192C11.2213 15.2107 12.1387 14.464 13.312 13.952C14.5067 13.4187 15.904 13.152 17.504 13.152C19.104 13.152 20.5227 13.4293 21.76 13.984C23.0187 14.5173 24 15.328 24.704 16.416C25.4293 17.4827 25.792 18.8267 25.792 20.448V21.408H21.632V20.448C21.632 19.5947 21.4613 18.912 21.12 18.4C20.8 17.8667 20.3307 17.4827 19.712 17.248C19.0933 16.992 18.3573 16.864 17.504 16.864C16.224 16.864 15.2747 17.1093 14.656 17.6C14.0587 18.0693 13.76 18.72 13.76 19.552C13.76 20.1067 13.8987 20.576 14.176 20.96C14.4747 21.344 14.912 21.664 15.488 21.92C16.064 22.176 16.8 22.4 17.696 22.592L18.432 22.752C20.032 23.0933 21.4187 23.5307 22.592 24.064C23.7867 24.5973 24.7147 25.3013 25.376 26.176C26.0373 27.0507 26.368 28.1707 26.368 29.536C26.368 30.9013 26.016 32.1067 25.312 33.152C24.6293 34.176 23.648 34.9867 22.368 35.584C21.1093 36.16 19.616 36.448 17.888 36.448ZM27.9182 36V13.6H37.6462C39.0543 13.6 40.2809 13.8453 41.3263 14.336C42.3716 14.8267 43.1823 15.52 43.7583 16.416C44.3343 17.312 44.6222 18.368 44.6222 19.584V19.968C44.6222 21.312 44.3022 22.4 43.6623 23.232C43.0222 24.064 42.2329 24.672 41.2943 25.056V25.632C42.1476 25.6747 42.8089 25.9733 43.2782 26.528C43.7476 27.0613 43.9823 27.776 43.9823 28.672V36H39.7583V29.28C39.7583 28.768 39.6196 28.352 39.3422 28.032C39.0862 27.712 38.6489 27.552 38.0303 27.552H32.1423V36H27.9182ZM32.1423 23.712H37.1982C38.2009 23.712 38.9796 23.4453 39.5343 22.912C40.1103 22.3573 40.3983 21.632 40.3983 20.736V20.416C40.3983 19.52 40.1209 18.8053 39.5662 18.272C39.0116 17.7173 38.2222 17.44 37.1982 17.44H32.1423V23.712Z" fill="white"/>
<path d="M49.193 36.448C48.3397 36.448 47.6143 36.1707 47.017 35.616C46.441 35.04 46.153 34.304 46.153 33.408C46.153 32.512 46.441 31.7867 47.017 31.232C47.6143 30.656 48.3397 30.368 49.193 30.368C50.0677 30.368 50.793 30.656 51.369 31.232C51.945 31.7867 52.233 32.512 52.233 33.408C52.233 34.304 51.945 35.04 51.369 35.616C50.793 36.1707 50.0677 36.448 49.193 36.448Z" fill="#00D3F3"/>
</svg>
